<svg fill="none" height="320" viewBox="0 0 518 320" width="518" xmlns="http://www.w3.org/2000/svg" xmlns:xlink="http://www.w3.org/1999/xlink"><mask id="a" fill="#fff"><path clip-rule="evenodd" d="m284.938 0c-21.39 0-40.677 8.99733-54.286 23.4138-14.415-8.3235-31.145-13.0862-48.987-13.0862-37.455 0-70.009 20.9897-86.539 51.8483-5.8389-1.4178-11.9383-2.1692-18.2132-2.1692-42.4778 0-76.9128 34.435-76.9128 76.9133 0 22.864 9.9767 43.398 25.8143 57.486-10.853 13.259-17.36462 30.21-17.36462 48.682 0 42.477 34.43502 76.912 76.91282 76.912 36.4325 0 66.9495-25.331 74.8965-59.342 16.005 10.88 35.332 17.238 56.143 17.238 4.117 0 8.176-.248 12.162-.732 13.508 19.182 35.824 31.714 61.068 31.714 32.905 0 60.836-21.292 70.767-50.851 16.662 15.806 39.177 25.503 63.956 25.503 51.333 0 92.946-41.613 92.946-92.945s-41.613-92.9451-92.946-92.9451c-6.272 0-12.399.6214-18.324 1.8059-8.879-20.4945-26.684-36.2226-48.512-42.281-7.865-32.792-37.377-57.1648-72.581-57.1648z" fill="#fff" fill-rule="evenodd"/></mask><path clip-rule="evenodd" d="m284.938 0c-21.39 0-40.677 8.99733-54.286 23.4138-14.415-8.3235-31.145-13.0862-48.987-13.0862-37.455 0-70.009 20.9897-86.539 51.8483-5.8389-1.4178-11.9383-2.1692-18.2132-2.1692-42.4778 0-76.9128 34.435-76.9128 76.9133 0 22.864 9.9767 43.398 25.8143 57.486-10.853 13.259-17.36462 30.21-17.36462 48.682 0 42.477 34.43502 76.912 76.91282 76.912 36.4325 0 66.9495-25.331 74.8965-59.342 16.005 10.88 35.332 17.238 56.143 17.238 4.117 0 8.176-.248 12.162-.732 13.508 19.182 35.824 31.714 61.068 31.714 32.905 0 60.836-21.292 70.767-50.851 16.662 15.806 39.177 25.503 63.956 25.503 51.333 0 92.946-41.613 92.946-92.945s-41.613-92.9451-92.946-92.9451c-6.272 0-12.399.6214-18.324 1.8059-8.879-20.4945-26.684-36.2226-48.512-42.281-7.865-32.792-37.377-57.1648-72.581-57.1648z" fill="#fff" fill-rule="evenodd"/><path d="m230.652 23.4138-1.5 2.598c1.204.6951 2.728.4721 3.682-.5387zm-135.526 38.7621-.7079 2.9153c1.3284.3226 2.7069-.2937 3.3523-1.4987zm-69.3117 132.2301 2.3215 1.9c1.019-1.245.8745-3.073-.3276-4.142zm134.4447 66.252 1.687-2.481c-.818-.556-1.857-.673-2.777-.314-.921.36-1.606 1.15-1.831 2.112zm68.305 16.506 2.453-1.727c-.636-.903-1.717-1.384-2.814-1.251zm131.835-19.137 2.065-2.176c-.743-.705-1.795-.982-2.789-.735s-1.793.985-2.119 1.956zm45.632-158.5812-2.752 1.1922c.562 1.298 1.954 2.027 3.341 1.75zm-48.512-42.281-2.917.6998c.254 1.0604 1.064 1.8993 2.115 2.191zm-124.685-31.6917c13.065-13.8411 31.574-22.4731 52.104-22.4731v-6c-22.249 0-42.316 9.36266-56.467 24.3545zm-51.169-12.1455c17.302 0 33.516 4.617 47.487 12.6842l3-5.196c-14.859-8.5798-32.104-13.48821-50.487-13.48821zm-83.8946 50.2649c16.0286-29.9227 47.5886-50.2649 83.8946-50.2649v-6.00001c-38.605 0-72.152 21.63711-89.1835 53.43181zm-20.8576-.5858c6.0346 0 11.8964.7226 17.5053 2.0845l1.4158-5.8305c-6.0689-1.4737-12.4059-2.254-18.9211-2.254zm-73.9128 73.9133c0-40.8214 33.0919-73.9133 73.9128-73.9133v-6c-44.1346 0-79.9128 35.7782-79.9128 79.9133zm24.8082 55.244c-15.2247-13.543-24.8082-33.273-24.8082-55.244h-6c0 23.756 10.36993 45.094 26.8204 59.727zm-16.3585 50.924c0-17.754 6.2557-34.039 16.6861-46.782l-4.6431-3.801c-11.2756 13.776-18.04302 31.393-18.04302 50.583zm73.9128 73.912c-40.8209 0-73.9128-33.091-73.9128-73.912h-6.00002c0 44.134 35.77822 79.912 79.91282 79.912zm71.9755-57.025c-7.638 32.684-36.968 57.025-71.9755 57.025v6c37.8575 0 69.5605-26.322 77.8185-61.66zm59.064 14.921c-20.191 0-38.933-6.166-54.456-16.719l-3.373 4.962c16.486 11.208 36.397 17.757 57.829 17.757zm11.801-.71c-3.867.469-7.805.71-11.801.71v6c4.238 0 8.417-.256 12.523-.754zm61.429 31.692c-24.226 0-45.645-12.023-58.615-30.441l-4.906 3.455c14.046 19.945 37.26 32.986 63.521 32.986zm67.924-48.806c-9.534 28.374-36.347 48.806-67.924 48.806v6c34.232 0 63.282-22.152 73.611-52.895zm66.799 23.458c-23.98 0-45.764-9.381-61.891-24.679l-4.129 4.353c17.197 16.313 40.443 26.326 66.02 26.326zm89.946-89.945c0 49.675-40.27 89.945-89.946 89.945v6c52.989 0 95.946-42.956 95.946-95.945zm-89.946-89.945c49.676 0 89.946 40.27 89.946 89.945h6c0-52.989-42.957-95.9451-95.946-95.9451zm-17.735 1.748c5.731-1.146 11.662-1.748 17.735-1.748v-6.0001c-6.471 0-12.795.6411-18.912 1.8641zm-49.903-42.3324c20.945 5.8132 38.039 20.9104 46.562 40.5824l5.505-2.3848c-9.235-21.3167-27.751-37.6756-50.462-43.9791zm-71.779-57.0556c33.785 0 62.114 23.3905 69.664 54.8646l5.834-1.3995c-8.181-34.1101-38.875-59.4651-75.498-59.4651z" fill="#000" mask="url(#a)"/></svg>