<svg fill="none" height="234" viewBox="0 0 335 234" width="335" xmlns="http://www.w3.org/2000/svg" xmlns:xlink="http://www.w3.org/1999/xlink"><mask id="a" fill="#fff"><path clip-rule="evenodd" d="m261.847 54.352c0 5.7994-.908 11.3865-2.59 16.6271 5.149 4.8864 9.343 10.7709 12.27 17.3436 35.419 2.1741 63.473 31.5883 63.473 67.5553 0 37.38-30.303 67.683-67.684 67.683-11.97 0-23.214-3.107-32.97-8.559-9.953 11.127-24.421 18.131-40.525 18.131-22.718 0-42.181-13.939-50.303-33.731-10.198 10.674-24.574 17.323-40.502 17.323-30.9326 0-56.0086-25.076-56.0086-56.009 0-1.916.0962-3.809.284-5.675-26.7926-4.187-47.2914-27.367-47.2914-55.3345 0-30.9328 25.076-56.0088 56.0088-56.0088 3.187 0 6.3118.2662 9.3534.7775 12.5698-21.299 35.7548-35.58744 62.2768-35.58744 13.941 0 26.961 3.94814 38.001 10.78744 9.97-12.01983 25.018-19.6752 41.855-19.6752 30.018 0 54.352 24.3342 54.352 54.352z" fill="#fff" fill-rule="evenodd"/></mask><path clip-rule="evenodd" d="m261.847 54.352c0 5.7994-.908 11.3865-2.59 16.6271 5.149 4.8864 9.343 10.7709 12.27 17.3436 35.419 2.1741 63.473 31.5883 63.473 67.5553 0 37.38-30.303 67.683-67.684 67.683-11.97 0-23.214-3.107-32.97-8.559-9.953 11.127-24.421 18.131-40.525 18.131-22.718 0-42.181-13.939-50.303-33.731-10.198 10.674-24.574 17.323-40.502 17.323-30.9326 0-56.0086-25.076-56.0086-56.009 0-1.916.0962-3.809.284-5.675-26.7926-4.187-47.2914-27.367-47.2914-55.3345 0-30.9328 25.076-56.0088 56.0088-56.0088 3.187 0 6.3118.2662 9.3534.7775 12.5698-21.299 35.7548-35.58744 62.2768-35.58744 13.941 0 26.961 3.94814 38.001 10.78744 9.97-12.01983 25.018-19.6752 41.855-19.6752 30.018 0 54.352 24.3342 54.352 54.352z" fill="#fff" fill-rule="evenodd"/><path d="m259.257 70.9791-2.857-.9168c-.352 1.0974-.044 2.2997.792 3.093zm12.27 17.3436-2.74 1.2206c.455 1.0216 1.44 1.7053 2.556 1.7738zm-37.181 126.6793 1.463-2.619c-1.226-.685-2.763-.428-3.699.619zm-90.828-15.6 2.775-1.139c-.385-.939-1.22-1.62-2.219-1.809-.998-.188-2.023.141-2.725.876zm-96.2266-44.361 2.9849.3c.1595-1.585-.9477-3.018-2.5217-3.264zm18.0708-110.5658-.4974 2.9585c1.2248.2059 2.4498-.3641 3.081-1.4337zm100.2778-24.8-1.58 2.5503c1.273.7887 2.933.5176 3.889-.6351zm96.473 52.2207c1.776-5.5333 2.734-11.4296 2.734-17.5439h-6c0 5.4844-.859 10.7625-2.447 15.7103zm12.155 15.2063c-3.09-6.9374-7.515-13.1455-12.946-18.2994l-4.13 4.3525c4.868 4.6189 8.83 10.1798 11.595 16.388zm-2.925 4.2149c33.847 2.0776 60.657 30.1889 60.657 64.5609h6c0-37.562-29.297-68.279-66.289-70.5496zm60.657 64.5609c0 35.723-28.96 64.683-64.684 64.683v6c39.038 0 70.684-31.646 70.684-70.683zm-64.684 64.683c-11.444 0-22.186-2.969-31.507-8.178l-2.927 5.238c10.192 5.695 21.939 8.94 34.434 8.94zm-73.495 15.572c16.993 0 32.263-7.394 42.761-19.131l-4.472-4c-9.408 10.518-23.074 17.131-38.289 17.131zm-53.079-35.592c8.569 20.879 29.102 35.592 53.079 35.592v-6c-21.459 0-39.852-13.165-47.528-31.87zm-37.726 19.184c16.781 0 31.93-7.009 42.671-18.25l-4.338-4.145c-9.656 10.106-23.257 16.395-38.333 16.395zm-59.0086-59.009c0 32.59 26.4191 59.009 59.0086 59.009v-6c-29.2758 0-53.0086-23.733-53.0086-53.009zm.2991-5.976c-.1979 1.966-.2991 3.96-.2991 5.976h6c0-1.815.0911-3.608.2689-5.375zm-47.3065-55.0335c0 29.4685 21.5979 53.8865 49.8282 58.2985l.9264-5.928c-25.355-3.963-44.7546-25.904-44.7546-52.3705zm59.0088-59.0088c-32.5897 0-59.0088 26.4191-59.0088 59.0088h6c0-29.276 23.7328-53.0088 53.0088-53.0088zm9.8508.819c-3.2053-.5388-6.4965-.819-9.8508-.819v6c3.0196 0 5.9781.2522 8.856.736zm61.7794-35.62894c-27.627 0-51.7734 14.88724-64.8604 37.06274l5.1672 3.0495c12.0526-20.4227 34.2762-34.1122 59.6932-34.1122zm39.581 11.23714c-11.501-7.1247-25.065-11.23714-39.581-11.23714v6.00004c13.367 0 25.842 3.7839 36.421 10.3377zm40.275-20.1249c-17.767 0-33.649 8.08243-44.164 20.76l4.618 3.8304c9.424-11.3621 23.64-18.5904 39.546-18.5904zm57.352 57.352c0-31.6746-25.677-57.352-57.352-57.352v6c28.361 0 51.352 22.9911 51.352 51.352z" fill="#000" mask="url(#a)"/></svg>